<svg class="main-svg" xmlns="http://www.w3.org/2000/svg" xmlns:xlink="http://www.w3.org/1999/xlink" width="620" height="400" style="" viewBox="0 0 620 400"><rect x="0" y="0" width="620" height="400" style="fill: rgb(243, 242, 242); fill-opacity: 1;"/><defs id="defs-b4340e"><g class="clips"><clipPath id="clipb4340exyplot" class="plotclip"><rect width="425" height="278"/></clipPath><clipPath class="axesclip" id="clipb4340ex"><rect x="70" y="0" width="425" height="400"/></clipPath><clipPath class="axesclip" id="clipb4340ey"><rect x="0" y="60" width="620" height="278"/></clipPath><clipPath class="axesclip" id="clipb4340exy"><rect x="70" y="60" width="425" height="278"/></clipPath></g><g class="gradients"/><g class="patterns"/></defs><g class="bglayer"/><g class="layer-below"><g class="imagelayer"/><g class="shapelayer"/></g><g class="cartesianlayer"><g class="subplot xy"><g class="layer-subplot"><g class="shapelayer"/><g class="imagelayer"/></g><g class="minor-gridlayer"><g class="x"/><g class="y"/></g><g class="gridlayer"><g class="x"><path class="xgrid crisp" transform="translate(95,0)" d="M0,60v278" style="stroke: rgb(193, 193, 193); stroke-opacity: 1; stroke-dasharray: 3px, 3px; stroke-width: 1px;"/><path class="xgrid crisp" transform="translate(126.25,0)" d="M0,60v278" style="stroke: rgb(193, 193, 193); stroke-opacity: 1; stroke-dasharray: 3px, 3px; stroke-width: 1px;"/><path class="xgrid crisp" transform="translate(157.5,0)" d="M0,60v278" style="stroke: rgb(193, 193, 193); stroke-opacity: 1; stroke-dasharray: 3px, 3px; stroke-width: 1px;"/><path class="xgrid crisp" transform="translate(188.75,0)" d="M0,60v278" style="stroke: rgb(193, 193, 193); stroke-opacity: 1; stroke-dasharray: 3px, 3px; stroke-width: 1px;"/><path class="xgrid crisp" transform="translate(220,0)" d="M0,60v278" style="stroke: rgb(193, 193, 193); stroke-opacity: 1; stroke-dasharray: 3px, 3px; stroke-width: 1px;"/><path class="xgrid crisp" transform="translate(251.25,0)" d="M0,60v278" style="stroke: rgb(193, 193, 193); stroke-opacity: 1; stroke-dasharray: 3px, 3px; stroke-width: 1px;"/><path class="xgrid crisp" transform="translate(282.5,0)" d="M0,60v278" style="stroke: rgb(193, 193, 193); stroke-opacity: 1; stroke-dasharray: 3px, 3px; stroke-width: 1px;"/><path class="xgrid crisp" transform="translate(313.75,0)" d="M0,60v278" style="stroke: rgb(193, 193, 193); stroke-opacity: 1; stroke-dasharray: 3px, 3px; stroke-width: 1px;"/><path class="xgrid crisp" transform="translate(345,0)" d="M0,60v278" style="stroke: rgb(193, 193, 193); stroke-opacity: 1; stroke-dasharray: 3px, 3px; stroke-width: 1px;"/><path class="xgrid crisp" transform="translate(376.25,0)" d="M0,60v278" style="stroke: rgb(193, 193, 193); stroke-opacity: 1; stroke-dasharray: 3px, 3px; stroke-width: 1px;"/><path class="xgrid crisp" transform="translate(407.5,0)" d="M0,60v278" style="stroke: rgb(193, 193, 193); stroke-opacity: 1; stroke-dasharray: 3px, 3px; stroke-width: 1px;"/><path class="xgrid crisp" transform="translate(438.75,0)" d="M0,60v278" style="stroke: rgb(193, 193, 193); stroke-opacity: 1; stroke-dasharray: 3px, 3px; stroke-width: 1px;"/><path class="xgrid crisp" transform="translate(470,0)" d="M0,60v278" style="stroke: rgb(193, 193, 193); stroke-opacity: 1; stroke-dasharray: 3px, 3px; stroke-width: 1px;"/></g><g class="y"><path class="ygrid crisp" transform="translate(0,330.13)" d="M70,0h425" style="stroke: rgb(193, 193, 193); stroke-opacity: 1; stroke-dasharray: 3px, 3px; stroke-width: 1px;"/><path class="ygrid crisp" transform="translate(0,274.76)" d="M70,0h425" style="stroke: rgb(193, 193, 193); stroke-opacity: 1; stroke-dasharray: 3px, 3px; stroke-width: 1px;"/><path class="ygrid crisp" transform="translate(0,219.4)" d="M70,0h425" style="stroke: rgb(193, 193, 193); stroke-opacity: 1; stroke-dasharray: 3px, 3px; stroke-width: 1px;"/><path class="ygrid crisp" transform="translate(0,164.03)" d="M70,0h425" style="stroke: rgb(193, 193, 193); stroke-opacity: 1; stroke-dasharray: 3px, 3px; stroke-width: 1px;"/><path class="ygrid crisp" transform="translate(0,108.67)" d="M70,0h425" style="stroke: rgb(193, 193, 193); stroke-opacity: 1; stroke-dasharray: 3px, 3px; stroke-width: 1px;"/></g></g><g class="zerolinelayer"/><g class="layer-between"><g class="shapelayer"/><g class="imagelayer"/></g><path class="xlines-below"/><path class="ylines-below"/><g class="overlines-below"/><g class="xaxislayer-below"/><g class="yaxislayer-below"/><g class="overaxes-below"/><g class="overplot"><g class="xy" transform="translate(70,60)" clip-path="url(#clipb4340exyplot)"><g class="scatterlayer mlayer"><g class="trace scatter trace430704" style="stroke-miterlimit: 2; opacity: 1;"><g class="fills"/><g class="errorbars"/><g class="lines"><path class="js-line" d="M25,47.76L56.25,42.98L87.5,30.98L118.75,24.23L150,21.4L181.25,21.21L212.5,17.98L243.75,17.65L275,22.89L368.75,28.02L400,35.51" style="vector-effect: none; fill: none; stroke: rgb(80, 200, 120); stroke-opacity: 1; stroke-width: 2px; opacity: 1;"/></g><g class="points"><path class="point" transform="translate(25,47.76)" d="M3,0A3,3 0 1,1 0,-3A3,3 0 0,1 3,0Z" style="opacity: 1; stroke-width: 0px; fill: rgb(80, 200, 120); fill-opacity: 1;"/><path class="point" transform="translate(56.25,42.98)" d="M3,0A3,3 0 1,1 0,-3A3,3 0 0,1 3,0Z" style="opacity: 1; stroke-width: 0px; fill: rgb(80, 200, 120); fill-opacity: 1;"/><path class="point" transform="translate(87.5,30.98)" d="M3,0A3,3 0 1,1 0,-3A3,3 0 0,1 3,0Z" style="opacity: 1; stroke-width: 0px; fill: rgb(80, 200, 120); fill-opacity: 1;"/><path class="point" transform="translate(118.75,24.23)" d="M3,0A3,3 0 1,1 0,-3A3,3 0 0,1 3,0Z" style="opacity: 1; stroke-width: 0px; fill: rgb(80, 200, 120); fill-opacity: 1;"/><path class="point" transform="translate(150,21.4)" d="M3,0A3,3 0 1,1 0,-3A3,3 0 0,1 3,0Z" style="opacity: 1; stroke-width: 0px; fill: rgb(80, 200, 120); fill-opacity: 1;"/><path class="point" transform="translate(181.25,21.21)" d="M3,0A3,3 0 1,1 0,-3A3,3 0 0,1 3,0Z" style="opacity: 1; stroke-width: 0px; fill: rgb(80, 200, 120); fill-opacity: 1;"/><path class="point" transform="translate(212.5,17.98)" d="M3,0A3,3 0 1,1 0,-3A3,3 0 0,1 3,0Z" style="opacity: 1; stroke-width: 0px; fill: rgb(80, 200, 120); fill-opacity: 1;"/><path class="point" transform="translate(243.75,17.65)" d="M3,0A3,3 0 1,1 0,-3A3,3 0 0,1 3,0Z" style="opacity: 1; stroke-width: 0px; fill: rgb(80, 200, 120); fill-opacity: 1;"/><path class="point" transform="translate(275,22.89)" d="M3,0A3,3 0 1,1 0,-3A3,3 0 0,1 3,0Z" style="opacity: 1; stroke-width: 0px; fill: rgb(80, 200, 120); fill-opacity: 1;"/><path class="point" transform="translate(306.25,24.46)" d="M3,0A3,3 0 1,1 0,-3A3,3 0 0,1 3,0Z" style="opacity: 1; stroke-width: 0px; fill: rgb(80, 200, 120); fill-opacity: 1;"/><path class="point" transform="translate(337.5,25.92)" d="M3,0A3,3 0 1,1 0,-3A3,3 0 0,1 3,0Z" style="opacity: 1; stroke-width: 0px; fill: rgb(80, 200, 120); fill-opacity: 1;"/><path class="point" transform="translate(368.75,28.02)" d="M3,0A3,3 0 1,1 0,-3A3,3 0 0,1 3,0Z" style="opacity: 1; stroke-width: 0px; fill: rgb(80, 200, 120); fill-opacity: 1;"/><path class="point" transform="translate(400,35.51)" d="M3,0A3,3 0 1,1 0,-3A3,3 0 0,1 3,0Z" style="opacity: 1; stroke-width: 0px; fill: rgb(80, 200, 120); fill-opacity: 1;"/></g><g class="text"/></g><g class="trace scatter tracef93cef" style="stroke-miterlimit: 2; opacity: 1;"><g class="fills"/><g class="errorbars"/><g class="lines"><path class="js-line" d="M25,231.74L56.25,214.06L87.5,182.33L118.75,169.51L150,161.15L181.25,154.47L212.5,157.73L243.75,147.54L275,153.88L306.25,161.73L337.5,165.26L368.75,175.4L400,186.34" style="vector-effect: none; fill: none; stroke: rgb(45, 104, 196); stroke-opacity: 1; stroke-width: 2px; opacity: 1;"/></g><g class="points"><path class="point" transform="translate(25,231.74)" d="M3,0A3,3 0 1,1 0,-3A3,3 0 0,1 3,0Z" style="opacity: 1; stroke-width: 0px; fill: rgb(45, 104, 196); fill-opacity: 1;"/><path class="point" transform="translate(56.25,214.06)" d="M3,0A3,3 0 1,1 0,-3A3,3 0 0,1 3,0Z" style="opacity: 1; stroke-width: 0px; fill: rgb(45, 104, 196); fill-opacity: 1;"/><path class="point" transform="translate(87.5,182.33)" d="M3,0A3,3 0 1,1 0,-3A3,3 0 0,1 3,0Z" style="opacity: 1; stroke-width: 0px; fill: rgb(45, 104, 196); fill-opacity: 1;"/><path class="point" transform="translate(118.75,169.51)" d="M3,0A3,3 0 1,1 0,-3A3,3 0 0,1 3,0Z" style="opacity: 1; stroke-width: 0px; fill: rgb(45, 104, 196); fill-opacity: 1;"/><path class="point" transform="translate(150,161.15)" d="M3,0A3,3 0 1,1 0,-3A3,3 0 0,1 3,0Z" style="opacity: 1; stroke-width: 0px; fill: rgb(45, 104, 196); fill-opacity: 1;"/><path class="point" transform="translate(181.25,154.47)" d="M3,0A3,3 0 1,1 0,-3A3,3 0 0,1 3,0Z" style="opacity: 1; stroke-width: 0px; fill: rgb(45, 104, 196); fill-opacity: 1;"/><path class="point" transform="translate(212.5,157.73)" d="M3,0A3,3 0 1,1 0,-3A3,3 0 0,1 3,0Z" style="opacity: 1; stroke-width: 0px; fill: rgb(45, 104, 196); fill-opacity: 1;"/><path class="point" transform="translate(243.75,147.54)" d="M3,0A3,3 0 1,1 0,-3A3,3 0 0,1 3,0Z" style="opacity: 1; stroke-width: 0px; fill: rgb(45, 104, 196); fill-opacity: 1;"/><path class="point" transform="translate(275,153.88)" d="M3,0A3,3 0 1,1 0,-3A3,3 0 0,1 3,0Z" style="opacity: 1; stroke-width: 0px; fill: rgb(45, 104, 196); fill-opacity: 1;"/><path class="point" transform="translate(306.25,161.73)" d="M3,0A3,3 0 1,1 0,-3A3,3 0 0,1 3,0Z" style="opacity: 1; stroke-width: 0px; fill: rgb(45, 104, 196); fill-opacity: 1;"/><path class="point" transform="translate(337.5,165.26)" d="M3,0A3,3 0 1,1 0,-3A3,3 0 0,1 3,0Z" style="opacity: 1; stroke-width: 0px; fill: rgb(45, 104, 196); fill-opacity: 1;"/><path class="point" transform="translate(368.75,175.4)" d="M3,0A3,3 0 1,1 0,-3A3,3 0 0,1 3,0Z" style="opacity: 1; stroke-width: 0px; fill: rgb(45, 104, 196); fill-opacity: 1;"/><path class="point" transform="translate(400,186.34)" d="M3,0A3,3 0 1,1 0,-3A3,3 0 0,1 3,0Z" style="opacity: 1; stroke-width: 0px; fill: rgb(45, 104, 196); fill-opacity: 1;"/></g><g class="text"/></g><g class="trace scatter trace014406" style="stroke-miterlimit: 2; opacity: 1;"><g class="fills"/><g class="errorbars"/><g class="lines"><path class="js-line" d="M25,260.35L56.25,249.85L87.5,229.83L118.75,221.39L150,216.02L181.25,212L212.5,213.61L243.75,207.5L275,212.06L306.25,217.06L337.5,219.53L368.75,225.63L400,233.02" style="vector-effect: none; fill: none; stroke: rgb(0, 0, 0); stroke-opacity: 1; stroke-width: 2px; opacity: 1;"/></g><g class="points"><path class="point" transform="translate(25,260.35)" d="M3,0A3,3 0 1,1 0,-3A3,3 0 0,1 3,0Z" style="opacity: 1; stroke-width: 0px; fill: rgb(0, 0, 0); fill-opacity: 1;"/><path class="point" transform="translate(56.25,249.85)" d="M3,0A3,3 0 1,1 0,-3A3,3 0 0,1 3,0Z" style="opacity: 1; stroke-width: 0px; fill: rgb(0, 0, 0); fill-opacity: 1;"/><path class="point" transform="translate(87.5,229.83)" d="M3,0A3,3 0 1,1 0,-3A3,3 0 0,1 3,0Z" style="opacity: 1; stroke-width: 0px; fill: rgb(0, 0, 0); fill-opacity: 1;"/><path class="point" transform="translate(118.75,221.39)" d="M3,0A3,3 0 1,1 0,-3A3,3 0 0,1 3,0Z" style="opacity: 1; stroke-width: 0px; fill: rgb(0, 0, 0); fill-opacity: 1;"/><path class="point" transform="translate(150,216.02)" d="M3,0A3,3 0 1,1 0,-3A3,3 0 0,1 3,0Z" style="opacity: 1; stroke-width: 0px; fill: rgb(0, 0, 0); fill-opacity: 1;"/><path class="point" transform="translate(181.25,212)" d="M3,0A3,3 0 1,1 0,-3A3,3 0 0,1 3,0Z" style="opacity: 1; stroke-width: 0px; fill: rgb(0, 0, 0); fill-opacity: 1;"/><path class="point" transform="translate(212.5,213.61)" d="M3,0A3,3 0 1,1 0,-3A3,3 0 0,1 3,0Z" style="opacity: 1; stroke-width: 0px; fill: rgb(0, 0, 0); fill-opacity: 1;"/><path class="point" transform="translate(243.75,207.5)" d="M3,0A3,3 0 1,1 0,-3A3,3 0 0,1 3,0Z" style="opacity: 1; stroke-width: 0px; fill: rgb(0, 0, 0); fill-opacity: 1;"/><path class="point" transform="translate(275,212.06)" d="M3,0A3,3 0 1,1 0,-3A3,3 0 0,1 3,0Z" style="opacity: 1; stroke-width: 0px; fill: rgb(0, 0, 0); fill-opacity: 1;"/><path class="point" transform="translate(306.25,217.06)" d="M3,0A3,3 0 1,1 0,-3A3,3 0 0,1 3,0Z" style="opacity: 1; stroke-width: 0px; fill: rgb(0, 0, 0); fill-opacity: 1;"/><path class="point" transform="translate(337.5,219.53)" d="M3,0A3,3 0 1,1 0,-3A3,3 0 0,1 3,0Z" style="opacity: 1; stroke-width: 0px; fill: rgb(0, 0, 0); fill-opacity: 1;"/><path class="point" transform="translate(368.75,225.63)" d="M3,0A3,3 0 1,1 0,-3A3,3 0 0,1 3,0Z" style="opacity: 1; stroke-width: 0px; fill: rgb(0, 0, 0); fill-opacity: 1;"/><path class="point" transform="translate(400,233.02)" d="M3,0A3,3 0 1,1 0,-3A3,3 0 0,1 3,0Z" style="opacity: 1; stroke-width: 0px; fill: rgb(0, 0, 0); fill-opacity: 1;"/></g><g class="text"/></g></g></g></g><g class="zerolinelayer-above"/><path class="xlines-above crisp" d="" style="fill: none; stroke-width: 1px; stroke: rgb(0, 0, 0); stroke-opacity: 0;"/><path class="ylines-above crisp" d="" style="fill: none; stroke-width: 1px; stroke: rgb(0, 0, 0); stroke-opacity: 0;"/><g class="overlines-above"/><g class="xaxislayer-above"><path class="xtick ticks crisp" d="M0,339v4" transform="translate(95,0)" style="stroke: rgb(0, 0, 0); stroke-opacity: 1; stroke-width: 1px;"/><path class="xtick ticks crisp" d="M0,339v4" transform="translate(126.25,0)" style="stroke: rgb(0, 0, 0); stroke-opacity: 1; stroke-width: 1px;"/><path class="xtick ticks crisp" d="M0,339v4" transform="translate(157.5,0)" style="stroke: rgb(0, 0, 0); stroke-opacity: 1; stroke-width: 1px;"/><path class="xtick ticks crisp" d="M0,339v4" transform="translate(188.75,0)" style="stroke: rgb(0, 0, 0); stroke-opacity: 1; stroke-width: 1px;"/><path class="xtick ticks crisp" d="M0,339v4" transform="translate(220,0)" style="stroke: rgb(0, 0, 0); stroke-opacity: 1; stroke-width: 1px;"/><path class="xtick ticks crisp" d="M0,339v4" transform="translate(251.25,0)" style="stroke: rgb(0, 0, 0); stroke-opacity: 1; stroke-width: 1px;"/><path class="xtick ticks crisp" d="M0,339v4" transform="translate(282.5,0)" style="stroke: rgb(0, 0, 0); stroke-opacity: 1; stroke-width: 1px;"/><path class="xtick ticks crisp" d="M0,339v4" transform="translate(313.75,0)" style="stroke: rgb(0, 0, 0); stroke-opacity: 1; stroke-width: 1px;"/><path class="xtick ticks crisp" d="M0,339v4" transform="translate(345,0)" style="stroke: rgb(0, 0, 0); stroke-opacity: 1; stroke-width: 1px;"/><path class="xtick ticks crisp" d="M0,339v4" transform="translate(376.25,0)" style="stroke: rgb(0, 0, 0); stroke-opacity: 1; stroke-width: 1px;"/><path class="xtick ticks crisp" d="M0,339v4" transform="translate(407.5,0)" style="stroke: rgb(0, 0, 0); stroke-opacity: 1; stroke-width: 1px;"/><path class="xtick ticks crisp" d="M0,339v4" transform="translate(438.75,0)" style="stroke: rgb(0, 0, 0); stroke-opacity: 1; stroke-width: 1px;"/><path class="xtick ticks crisp" d="M0,339v4" transform="translate(470,0)" style="stroke: rgb(0, 0, 0); stroke-opacity: 1; stroke-width: 1px;"/><g class="xtick"><text text-anchor="middle" x="0" y="358.6" transform="translate(95,0)" style="font-family: Inter, sans-serif; font-size: 13px; fill: rgb(0, 0, 0); fill-opacity: 1; white-space: pre;">0</text></g><g class="xtick"><text text-anchor="middle" x="0" y="358.6" style="font-family: Inter, sans-serif; font-size: 13px; fill: rgb(0, 0, 0); fill-opacity: 1; white-space: pre;" transform="translate(126.25,0)">1</text></g><g class="xtick"><text text-anchor="middle" x="0" y="358.6" style="font-family: Inter, sans-serif; font-size: 13px; fill: rgb(0, 0, 0); fill-opacity: 1; white-space: pre;" transform="translate(157.5,0)">2</text></g><g class="xtick"><text text-anchor="middle" x="0" y="358.6" style="font-family: Inter, sans-serif; font-size: 13px; fill: rgb(0, 0, 0); fill-opacity: 1; white-space: pre;" transform="translate(188.75,0)">3</text></g><g class="xtick"><text text-anchor="middle" x="0" y="358.6" style="font-family: Inter, sans-serif; font-size: 13px; fill: rgb(0, 0, 0); fill-opacity: 1; white-space: pre;" transform="translate(220,0)">4</text></g><g class="xtick"><text text-anchor="middle" x="0" y="358.6" style="font-family: Inter, sans-serif; font-size: 13px; fill: rgb(0, 0, 0); fill-opacity: 1; white-space: pre;" transform="translate(251.25,0)">5</text></g><g class="xtick"><text text-anchor="middle" x="0" y="358.6" style="font-family: Inter, sans-serif; font-size: 13px; fill: rgb(0, 0, 0); fill-opacity: 1; white-space: pre;" transform="translate(282.5,0)">6</text></g><g class="xtick"><text text-anchor="middle" x="0" y="358.6" style="font-family: Inter, sans-serif; font-size: 13px; fill: rgb(0, 0, 0); fill-opacity: 1; white-space: pre;" transform="translate(313.75,0)">7</text></g><g class="xtick"><text text-anchor="middle" x="0" y="358.6" style="font-family: Inter, sans-serif; font-size: 13px; fill: rgb(0, 0, 0); fill-opacity: 1; white-space: pre;" transform="translate(345,0)">8</text></g><g class="xtick"><text text-anchor="middle" x="0" y="358.6" style="font-family: Inter, sans-serif; font-size: 13px; fill: rgb(0, 0, 0); fill-opacity: 1; white-space: pre;" transform="translate(376.25,0)">9</text></g><g class="xtick"><text text-anchor="middle" x="0" y="358.6" style="font-family: Inter, sans-serif; font-size: 13px; fill: rgb(0, 0, 0); fill-opacity: 1; white-space: pre;" transform="translate(407.5,0)">10</text></g><g class="xtick"><text text-anchor="middle" x="0" y="358.6" style="font-family: Inter, sans-serif; font-size: 13px; fill: rgb(0, 0, 0); fill-opacity: 1; white-space: pre;" transform="translate(438.75,0)">11</text></g><g class="xtick"><text text-anchor="middle" x="0" y="358.6" style="font-family: Inter, sans-serif; font-size: 13px; fill: rgb(0, 0, 0); fill-opacity: 1; white-space: pre;" transform="translate(470,0)">12</text></g></g><g class="yaxislayer-above"><path class="ytick ticks crisp" d="M69,0h-4" transform="translate(0,330.13)" style="stroke: rgb(0, 0, 0); stroke-opacity: 1; stroke-width: 1px;"/><path class="ytick ticks crisp" d="M69,0h-4" transform="translate(0,274.76)" style="stroke: rgb(0, 0, 0); stroke-opacity: 1; stroke-width: 1px;"/><path class="ytick ticks crisp" d="M69,0h-4" transform="translate(0,219.4)" style="stroke: rgb(0, 0, 0); stroke-opacity: 1; stroke-width: 1px;"/><path class="ytick ticks crisp" d="M69,0h-4" transform="translate(0,164.03)" style="stroke: rgb(0, 0, 0); stroke-opacity: 1; stroke-width: 1px;"/><path class="ytick ticks crisp" d="M69,0h-4" transform="translate(0,108.67)" style="stroke: rgb(0, 0, 0); stroke-opacity: 1; stroke-width: 1px;"/><g class="ytick"><text text-anchor="end" x="62.4" y="4.55" transform="translate(0,330.13)" style="font-family: Inter, sans-serif; font-size: 13px; fill: rgb(0, 0, 0); fill-opacity: 1; white-space: pre;">0.1</text></g><g class="ytick"><text text-anchor="end" x="62.4" y="4.55" style="font-family: Inter, sans-serif; font-size: 13px; fill: rgb(0, 0, 0); fill-opacity: 1; white-space: pre;" transform="translate(0,274.76)">0.2</text></g><g class="ytick"><text text-anchor="end" x="62.4" y="4.55" style="font-family: Inter, sans-serif; font-size: 13px; fill: rgb(0, 0, 0); fill-opacity: 1; white-space: pre;" transform="translate(0,219.4)">0.3</text></g><g class="ytick"><text text-anchor="end" x="62.4" y="4.55" style="font-family: Inter, sans-serif; font-size: 13px; fill: rgb(0, 0, 0); fill-opacity: 1; white-space: pre;" transform="translate(0,164.03)">0.4</text></g><g class="ytick"><text text-anchor="end" x="62.4" y="4.55" style="font-family: Inter, sans-serif; font-size: 13px; fill: rgb(0, 0, 0); fill-opacity: 1; white-space: pre;" transform="translate(0,108.67)">0.5</text></g></g><g class="overaxes-above"/></g></g><g class="polarlayer"/><g class="smithlayer"/><g class="ternarylayer"/><g class="geolayer"/><g class="funnelarealayer"/><g class="pielayer"/><g class="iciclelayer"/><g class="treemaplayer"/><g class="sunburstlayer"/><g class="glimages"/><defs id="topdefs-b4340e"><g class="clips"/><clipPath id="legendb4340e"><rect width="104" height="70" x="0" y="0"/></clipPath></defs><g class="layer-above"><g class="imagelayer"/><g class="shapelayer"/></g><g class="infolayer"><g class="legend" pointer-events="all" transform="translate(503.5,60)"><rect class="bg" shape-rendering="crispEdges" style="stroke: rgb(68, 68, 68); stroke-opacity: 1; fill: rgb(243, 242, 242); fill-opacity: 1; stroke-width: 0px;" width="104" height="70" x="0" y="0"/><g class="scrollbox" transform="" clip-path="url(#legendb4340e)"><g class="groups"><g class="traces" transform="translate(0,14.950000000000001)" style="opacity: 1;"><text class="legendtext" text-anchor="start" x="40" y="5.07" style="font-family: Inter, sans-serif; font-size: 13px; fill: rgb(0, 0, 0); fill-opacity: 1; white-space: pre;">Accuracy</text><g class="layers" style="opacity: 1;"><g class="legendfill"/><g class="legendlines"><path class="js-line" d="M5,0h30" style="fill: none; stroke: rgb(80, 200, 120); stroke-opacity: 1; stroke-width: 2px;"/></g><g class="legendsymbols"><g class="legendpoints"><path class="scatterpts" transform="translate(20,0)" d="M3,0A3,3 0 1,1 0,-3A3,3 0 0,1 3,0Z" style="opacity: 1; stroke-width: 0px; fill: rgb(80, 200, 120); fill-opacity: 1;"/></g></g></g><rect class="legendtoggle" x="0" y="-9.950000000000001" width="98.1875" height="19.900000000000002" style="fill: rgb(0, 0, 0); fill-opacity: 0;"/></g><g class="traces" transform="translate(0,34.85)" style="opacity: 1;"><text class="legendtext" text-anchor="start" x="40" y="5.07" style="font-family: Inter, sans-serif; font-size: 13px; fill: rgb(0, 0, 0); fill-opacity: 1; white-space: pre;">F1</text><g class="layers" style="opacity: 1;"><g class="legendfill"/><g class="legendlines"><path class="js-line" d="M5,0h30" style="fill: none; stroke: rgb(45, 104, 196); stroke-opacity: 1; stroke-width: 2px;"/></g><g class="legendsymbols"><g class="legendpoints"><path class="scatterpts" transform="translate(20,0)" d="M3,0A3,3 0 1,1 0,-3A3,3 0 0,1 3,0Z" style="opacity: 1; stroke-width: 0px; fill: rgb(45, 104, 196); fill-opacity: 1;"/></g></g></g><rect class="legendtoggle" x="0" y="-9.950000000000001" width="98.1875" height="19.900000000000002" style="fill: rgb(0, 0, 0); fill-opacity: 0;"/></g><g class="traces" transform="translate(0,54.75000000000001)" style="opacity: 1;"><text class="legendtext" text-anchor="start" x="40" y="5.07" style="font-family: Inter, sans-serif; font-size: 13px; fill: rgb(0, 0, 0); fill-opacity: 1; white-space: pre;">Jaccard</text><g class="layers" style="opacity: 1;"><g class="legendfill"/><g class="legendlines"><path class="js-line" d="M5,0h30" style="fill: none; stroke: rgb(0, 0, 0); stroke-opacity: 1; stroke-width: 2px;"/></g><g class="legendsymbols"><g class="legendpoints"><path class="scatterpts" transform="translate(20,0)" d="M3,0A3,3 0 1,1 0,-3A3,3 0 0,1 3,0Z" style="opacity: 1; stroke-width: 0px; fill: rgb(0, 0, 0); fill-opacity: 1;"/></g></g></g><rect class="legendtoggle" x="0" y="-9.950000000000001" width="98.1875" height="19.900000000000002" style="fill: rgb(0, 0, 0); fill-opacity: 0;"/></g></g></g><rect class="scrollbar" rx="20" ry="3" width="0" height="0" style="fill: rgb(128, 139, 164); fill-opacity: 1;" x="0" y="0"/></g><g class="g-gtitle"><text class="gtitle" x="310" y="30" text-anchor="middle" dy="0em" style="opacity: 1; font-family: Inter, sans-serif; font-size: 15px; fill: rgb(0, 0, 0); fill-opacity: 1; white-space: pre;"><tspan style="font-weight:bold">Mean of Probe Metrics (LeJEPA)</tspan></text></g><g class="g-xtitle"><text class="xtitle" x="282.5" y="387.299609375" text-anchor="middle" style="opacity: 1; font-family: Inter, sans-serif; font-size: 16px; fill: rgb(0, 0, 0); fill-opacity: 1; white-space: pre;"><tspan style="font-weight:bold">Layer</tspan></text></g><g class="g-ytitle"><text class="ytitle" transform="rotate(-90,22.284765625,199)" x="22.284765625" y="199" text-anchor="middle" style="opacity: 1; font-family: Inter, sans-serif; font-size: 16px; fill: rgb(0, 0, 0); fill-opacity: 1; white-space: pre;"><tspan style="font-weight:bold">Score</tspan></text></g></g></svg>